<svg width="49" height="18" viewBox="0 0 49 18" fill="none" xmlns="http://www.w3.org/2000/svg">
<path d="M7.20491 3.8985C7.74538 3.76911 8.29696 3.69373 8.85181 3.67343C11.3364 3.68493 13.4683 5.47878 13.9473 7.96096L17.4842 7.16197C17.0229 4.6346 15.4791 2.44812 13.273 1.1977C11.0887 -0.0539102 8.49581 -0.338645 6.09961 0.409967L7.20491 3.8985Z" fill="#FFDD00"/>
<path d="M2.99371 15.7369L5.43643 12.9236C4.32908 11.9213 3.68385 10.4932 3.65689 8.98491C3.6804 7.46937 4.32569 6.03299 5.43643 5.02374L2.99371 2.23291C1.09037 3.94191 0 6.40114 0 8.98491C0 11.5687 1.09037 14.0279 2.99371 15.7369V15.7369Z" fill="#1C9AD6"/>
<path d="M13.9585 10.1104C13.6548 11.5998 12.7203 12.8767 11.4052 13.5989C10.1332 14.3547 8.60382 14.5186 7.20509 14.049L5.98926 17.5376C8.38515 18.3622 11.0159 18.0742 13.1848 16.7498C15.3324 15.4308 16.8516 13.2695 17.3849 10.7743L13.9585 10.1104Z" fill="#EF4123"/>
<path d="M29.4436 12.5747C28.4069 13.6077 26.814 13.793 25.5751 13.0249L24.3261 14.8254C26.4191 16.2097 29.1756 15.9291 30.9579 14.1502L29.4436 12.5747Z" fill="#323339"/>
<path fill-rule="evenodd" clip-rule="evenodd" d="M22.4802 7.51072C23.4082 5.72583 25.2502 4.63118 27.233 4.68613V4.69738C29.7293 4.74043 31.8761 6.50849 32.439 8.98491L22.7013 13.1374C21.582 11.4575 21.4963 9.2763 22.4802 7.51072ZM24.0277 10.2115V10.5491L29.6647 8.18592C28.8281 7.10056 27.4001 6.68713 26.1277 7.16186C24.8904 7.65776 24.0638 8.85821 24.0277 10.2115Z" fill="#323339"/>
<path d="M35.5339 2.23291V12.8223L37.3023 13.61L36.4844 15.7369L34.7159 14.9492C34.3493 14.7844 34.0407 14.5096 33.8317 14.1614C33.6185 13.7441 33.5049 13.2815 33.5001 12.811V2.23291H35.5339Z" fill="#323339"/>
<path d="M42.0662 7.16187C42.9038 6.83561 43.8426 6.92289 44.6084 7.39819C45.4179 7.8328 45.9879 8.62036 46.1558 9.53633L48.3664 9.08619C48.0672 7.53445 47.1405 6.1825 45.8132 5.36134C44.4629 4.59875 42.8638 4.43594 41.3919 4.9112L42.0662 7.16187Z" fill="#323339"/>
<path d="M39.524 14.3753L40.9609 12.6873C40.2525 12.0679 39.8482 11.1622 39.8556 10.2115C39.8932 9.27121 40.2897 8.38295 40.9609 7.7358L39.524 6.03655C38.3899 7.11826 37.7458 8.62938 37.7444 10.2115C37.7169 11.7964 38.3662 13.3155 39.524 14.3753Z" fill="#323339"/>
<path d="M46.1558 10.8867C45.9486 11.7847 45.3894 12.5573 44.6084 13.0249C43.8378 13.4867 42.9035 13.5694 42.0662 13.2499L41.403 15.3881C42.8748 15.8633 44.4739 15.7005 45.8242 14.9379C47.1572 14.1819 48.0923 12.863 48.3775 11.3369L46.1558 10.8867Z" fill="#323339"/>
</svg>
