<svg width="55" height="18" viewBox="0 0 55 18" fill="none" xmlns="http://www.w3.org/2000/svg">
<path d="M55 17.4275C53.6182 17.4275 52.2261 17.4275 50.8238 17.4275C50.6703 16.7103 50.5065 16.013 50.3734 15.3057C50.3223 15.0168 50.2199 14.8973 49.8923 14.9072C48.2137 14.9272 46.5452 14.9272 44.8666 14.9072C44.6107 14.9072 44.5083 14.9869 44.4367 15.2161C44.2013 15.8835 43.9556 16.5509 43.6997 17.2183C43.669 17.308 43.5462 17.4275 43.4643 17.4275C41.9596 17.4375 40.4447 17.4375 38.8889 17.4375C39.1755 16.7701 39.4416 16.1425 39.7078 15.5049C41.6526 10.9824 43.5973 6.46975 45.5524 1.94717C45.9823 0.970927 46.6169 0.5625 47.7019 0.5625C48.9097 0.5625 50.1278 0.5625 51.3663 0.5625C51.4891 1.11039 51.612 1.65828 51.7245 2.19621C52.6867 6.65902 53.6386 11.1318 54.6008 15.5946C54.7236 16.1624 54.8669 16.7302 55 17.308C55 17.3478 55 17.3877 55 17.4275ZM49.5341 11.4306C49.094 9.35862 48.6538 7.30652 48.2137 5.25443C48.1932 5.25443 48.1727 5.24447 48.1625 5.24447C47.3948 7.29656 46.6374 9.34866 45.8595 11.4306C47.1082 11.4306 48.3058 11.4306 49.5341 11.4306Z" fill="#1A1F71"/>
<path d="M36.7732 0C37.3371 0.102793 37.901 0.185027 38.4545 0.318657C38.9662 0.431729 39.457 0.596197 40 0.750386C39.7285 2.00446 39.4674 3.22769 39.2063 4.42008C38.4962 4.2145 37.8174 3.97808 37.1178 3.82389C36.157 3.6183 35.1754 3.53607 34.2251 3.80333C33.8388 3.90612 33.4419 4.11171 33.1391 4.36869C32.6169 4.8107 32.6065 5.44801 33.1078 5.91058C33.4524 6.22923 33.8596 6.4965 34.2773 6.73292C35.2068 7.288 36.1884 7.76084 37.0969 8.35704C38.1621 9.05603 38.9453 10.0017 39.1019 11.2969C39.3943 13.5789 38.538 15.3778 36.5852 16.6524C35.3634 17.4542 33.9745 17.814 32.5334 17.9373C30.518 18.1223 28.5443 17.8962 26.6124 17.2794C26.487 17.2383 26.3617 17.1869 26.2364 17.1355C26.1946 17.1253 26.1633 17.0944 26.1111 17.0533C26.3826 15.7992 26.6541 14.5452 26.9361 13.25C27.2598 13.3939 27.5731 13.5275 27.8864 13.6611C29.3901 14.2573 30.9461 14.5349 32.5543 14.2368C32.972 14.1545 33.4002 13.9798 33.7552 13.7434C34.528 13.2397 34.6011 12.2837 33.9014 11.6772C33.4419 11.2866 32.8885 10.9988 32.3559 10.6802C31.5309 10.1868 30.6642 9.7653 29.8809 9.2205C28.8889 8.51123 28.1683 7.57582 28.0221 6.32175C27.8133 4.45092 28.5234 2.92959 29.9854 1.74748C31.2594 0.719549 32.7631 0.256982 34.3713 0.0719549C34.4653 0.0616756 34.5489 0.0308378 34.6324 0.0102793C35.3425 0 36.0631 0 36.7732 0Z" fill="#1A1F71"/>
<path d="M21.1111 0.583332C20.8749 1.13087 20.649 1.65849 20.4231 2.17617C18.2669 7.16372 16.1106 12.1513 13.9645 17.1388C13.8619 17.3778 13.7386 17.4375 13.4922 17.4375C12.1266 17.4275 10.7712 17.4176 9.40553 17.4375C9.11803 17.4375 9.02561 17.3479 8.95374 17.0891C7.80372 12.7287 6.62289 8.37826 5.48314 4.01788C5.27778 3.22146 4.85679 2.67393 4.06615 2.33545C2.80318 1.79787 1.49913 1.41957 0.164289 1.11096C0.112949 1.101 0.0513402 1.08109 0 1.07114C0.010268 0.563422 0.010268 0.563421 0.503134 0.563421C2.88532 0.563421 5.26751 0.563421 7.6497 0.563421C8.77918 0.563421 9.59036 1.20055 9.80599 2.28567C10.4118 5.35188 10.9971 8.42804 11.6029 11.4942C11.6337 11.6237 11.6542 11.763 11.6953 11.9522C11.7569 11.8427 11.798 11.773 11.8288 11.7033C13.3074 8.0796 14.786 4.45591 16.2543 0.822257C16.3365 0.623153 16.4289 0.553466 16.6548 0.563421C18.041 0.573377 19.4169 0.563421 20.8031 0.563421C20.8955 0.563421 20.9776 0.573377 21.1111 0.583332Z" fill="#1A1F71"/>
<path d="M18.8889 17.4269C20.1477 11.7855 21.3962 6.18397 22.655 0.5625C24.1843 0.5625 25.6929 0.5625 27.2222 0.5625C27.0349 1.41967 26.8477 2.25692 26.6604 3.09416C25.62 7.73885 24.5901 12.3736 23.5601 17.0183C23.4873 17.3372 23.3728 17.4469 23.0191 17.4369C21.7707 17.4169 20.5118 17.4269 19.2634 17.4269C19.149 17.4269 19.0345 17.4269 18.8889 17.4269Z" fill="#1A1F71"/>
</svg>
