<svg width="39" height="24" viewBox="0 0 39 24" fill="none" xmlns="http://www.w3.org/2000/svg">
<path d="M25.1449 2.55322H13.8555V21.4468H25.1449V2.55322Z" fill="#FD7E14"/>
<path d="M14.8966 11.9983C14.8951 10.1813 15.3088 8.38779 16.1064 6.75347C16.9039 5.11915 18.0644 3.68686 19.5 2.56501C17.7219 1.17374 15.5866 0.308603 13.3381 0.0684567C11.0896 -0.17169 8.81853 0.222849 6.78455 1.20698C4.75058 2.19111 3.03572 3.72513 1.83598 5.63371C0.636231 7.54229 0 9.74844 0 12C0 14.2516 0.636231 16.4577 1.83598 18.3663C3.03572 20.2749 4.75058 21.8089 6.78455 22.793C8.81853 23.7772 11.0896 24.1717 13.3381 23.9315C15.5866 23.6914 17.7219 22.8263 19.5 21.435C18.064 20.3128 16.9032 18.88 16.1057 17.245C15.3081 15.6101 14.8946 13.8159 14.8966 11.9983V11.9983Z" fill="#EA5455"/>
<path d="M39 12.0017C38.9999 14.2531 38.3636 16.4592 37.1638 18.3676C35.9639 20.276 34.249 21.8098 32.2149 22.7937C30.1809 23.7776 27.9098 24.1718 25.6614 23.9314C23.4129 23.6909 21.2778 22.8254 19.5 21.4339C20.9349 20.3112 22.0949 18.8787 22.8926 17.2444C23.6903 15.6102 24.1048 13.817 24.1048 12C24.1048 10.183 23.6903 8.38978 22.8926 6.75555C22.0949 5.12133 20.9349 3.68882 19.5 2.5661C21.2778 1.17456 23.4129 0.309099 25.6614 0.0686359C27.9098 -0.171827 30.1809 0.222412 32.2149 1.20629C34.249 2.19017 35.9639 3.72398 37.1638 5.63241C38.3636 7.54083 38.9999 9.74686 39 11.9983V12.0017Z" fill="#FF9F43"/>
</svg>
