<svg width="26" height="26" viewBox="0 0 26 26" fill="none" xmlns="http://www.w3.org/2000/svg">
<path d="M16.4872 25.25H10.0128C9.01931 25.25 7.74674 24.7253 7.05465 24.0221L2.47791 19.4453C1.77466 18.7421 1.25 17.4695 1.25 16.4872V10.0128C1.25 9.01931 1.77466 7.74676 2.47791 7.05467L7.05465 2.47791C7.7579 1.77466 9.03047 1.25 10.0128 1.25H16.4872C17.4807 1.25 18.7533 1.77466 19.4454 2.47791L24.0221 7.05467C24.7253 7.75792 25.25 9.03047 25.25 10.0128V16.4872C25.25 17.4807 24.7253 18.7532 24.0221 19.4453L19.4454 24.0221C18.7421 24.7253 17.4807 25.25 16.4872 25.25ZM10.0128 2.92442C9.46582 2.92442 8.61744 3.27047 8.2379 3.66117L3.66117 8.23792C3.28163 8.62862 2.92442 9.46582 2.92442 10.0128V16.4872C2.92442 17.0342 3.27047 17.8825 3.66117 18.2621L8.2379 22.8388C8.6286 23.2184 9.46582 23.5756 10.0128 23.5756H16.4872C17.0342 23.5756 17.8826 23.2295 18.2621 22.8388L22.8388 18.2621C23.2184 17.8714 23.5756 17.0342 23.5756 16.4872V10.0128C23.5756 9.46582 23.2295 8.61745 22.8388 8.23792L18.2621 3.66117C17.8714 3.28163 17.0342 2.92442 16.4872 2.92442H10.0128Z" fill="#EA5455"/>
<path d="M9.7475 17.4975C9.5575 17.4975 9.3675 17.4275 9.2175 17.2775C8.9275 16.9875 8.9275 16.5075 9.2175 16.2175L16.2175 9.2175C16.5075 8.9275 16.9875 8.9275 17.2775 9.2175C17.5675 9.5075 17.5675 9.9875 17.2775 10.2775L10.2775 17.2775C10.1275 17.4275 9.9375 17.4975 9.7475 17.4975Z" fill="#EA5455"/>
<path d="M16.7475 17.4975C16.5575 17.4975 16.3675 17.4275 16.2175 17.2775L9.2175 10.2775C8.9275 9.9875 8.9275 9.5075 9.2175 9.2175C9.5075 8.9275 9.9875 8.9275 10.2775 9.2175L17.2775 16.2175C17.5675 16.5075 17.5675 16.9875 17.2775 17.2775C17.1275 17.4275 16.9375 17.4975 16.7475 17.4975Z" fill="#EA5455"/>
</svg>
