<svg width="24" height="24" viewBox="0 0 24 24" fill="none" xmlns="http://www.w3.org/2000/svg">
<path fill-rule="evenodd" clip-rule="evenodd" d="M11 3.94118C7.10152 3.94118 3.94118 7.10152 3.94118 11C3.94118 14.8985 7.10152 18.0588 11 18.0588C12.9494 18.0588 14.7134 17.2693 15.9913 15.9913C17.2693 14.7134 18.0588 12.9494 18.0588 11C18.0588 7.10152 14.8985 3.94118 11 3.94118ZM3 11C3 6.58172 6.58172 3 11 3C15.4183 3 19 6.58172 19 11C19 13.209 18.1041 15.2097 16.6569 16.6569C15.2097 18.1041 13.209 19 11 19C6.58172 19 3 15.4183 3 11Z" fill="#52545E" stroke="#52545E" stroke-width="0.5" stroke-linecap="round" stroke-linejoin="round"/>
<path fill-rule="evenodd" clip-rule="evenodd" d="M16.1464 16.1464C16.3417 15.9512 16.6583 15.9512 16.8536 16.1464L21.1967 20.4896C21.392 20.6849 21.392 21.0014 21.1967 21.1967C21.0014 21.392 20.6849 21.392 20.4896 21.1967L16.1464 16.8536C15.9512 16.6583 15.9512 16.3417 16.1464 16.1464Z" fill="#52545E" stroke="#52545E" stroke-width="0.5" stroke-linecap="round" stroke-linejoin="round"/>
</svg>
