<svg width="24" height="24" viewBox="0 0 24 24" fill="none" xmlns="http://www.w3.org/2000/svg">
<path d="M11.1675 15.3275C10.9675 15.3275 10.7775 15.2475 10.6375 15.1075L8.2175 12.6875C7.9275 12.3975 7.9275 11.9175 8.2175 11.6275C8.5075 11.3375 8.9875 11.3375 9.2775 11.6275L11.1675 13.5175L15.4675 9.2175C15.7575 8.9275 16.2375 8.9275 16.5275 9.2175C16.8175 9.5075 16.8175 9.9875 16.5275 10.2775L11.6975 15.1075C11.5575 15.2475 11.3675 15.3275 11.1675 15.3275Z" fill="#28C76F"/>
<path d="M11.9916 24C11.2885 24 10.5854 23.7656 10.0386 23.2967L8.27529 21.7786C8.09672 21.6223 7.65031 21.466 7.41595 21.466H5.4964C3.84469 21.466 2.50546 20.1265 2.50546 18.4744V16.5656C2.50546 16.3312 2.34922 15.8958 2.19298 15.7172L0.686352 13.9423C-0.228784 12.8595 -0.228784 11.1516 0.686352 10.0688L2.19298 8.29395C2.34922 8.11535 2.50546 7.68 2.50546 7.44558V5.52558C2.50546 3.87349 3.84469 2.53395 5.4964 2.53395H7.42711C7.66147 2.53395 8.10788 2.36651 8.28645 2.2214L10.0498 0.703256C11.1435 -0.234419 12.851 -0.234419 13.9447 0.703256L15.708 2.2214C15.8865 2.37767 16.3329 2.53395 16.5673 2.53395H18.4645C20.1163 2.53395 21.4555 3.87349 21.4555 5.52558V7.42326C21.4555 7.65767 21.6229 8.10419 21.7791 8.28279L23.2969 10.0465C24.2344 11.1405 24.2344 12.8484 23.2969 13.9423L21.7791 15.706C21.6229 15.8847 21.4555 16.3312 21.4555 16.5656V18.4633C21.4555 20.1154 20.1163 21.4549 18.4645 21.4549H16.5673C16.3329 21.4549 15.8865 21.6223 15.708 21.7674L13.9447 23.2856C13.3978 23.7656 12.6947 24 11.9916 24ZM5.4964 4.20837C4.77098 4.20837 4.17949 4.8 4.17949 5.52558V7.43442C4.17949 8.0707 3.87817 8.88558 3.46524 9.36558L1.95861 11.1405C1.56801 11.5981 1.56801 12.3907 1.95861 12.8484L3.46524 14.6233C3.87817 15.1144 4.17949 15.9181 4.17949 16.5544V18.4633C4.17949 19.1888 4.77098 19.7805 5.4964 19.7805H7.42711C8.0744 19.7805 8.8891 20.0819 9.38014 20.506L11.1435 22.0242C11.601 22.4149 12.4046 22.4149 12.8621 22.0242L14.6254 20.506C15.1165 20.093 15.9312 19.7805 16.5785 19.7805H18.4757C19.2011 19.7805 19.7926 19.1888 19.7926 18.4633V16.5656C19.7926 15.9181 20.0939 15.1033 20.518 14.6121L22.0358 12.8484C22.4264 12.3907 22.4264 11.587 22.0358 11.1293L20.518 9.36558C20.0939 8.87442 19.7926 8.05954 19.7926 7.41209V5.52558C19.7926 4.8 19.2011 4.20837 18.4757 4.20837H16.5785C15.9312 4.20837 15.1165 3.90698 14.6254 3.48279L12.8621 1.96465C12.4046 1.57395 11.601 1.57395 11.1435 1.96465L9.38014 3.49395C8.8891 3.90698 8.06324 4.20837 7.42711 4.20837H5.4964Z" fill="#28C76F"/>
</svg>
