<svg width="24" height="24" viewBox="0 0 24 24" fill="none" xmlns="http://www.w3.org/2000/svg">
<path d="M12 13.75C11.59 13.75 11.25 13.41 11.25 13V7.75C11.25 7.34 11.59 7 12 7C12.41 7 12.75 7.34 12.75 7.75V13C12.75 13.41 12.41 13.75 12 13.75Z" fill="#FF9F43"/>
<path d="M12 17.25C11.73 17.25 11.48 17.15 11.29 16.96C11.2 16.86 11.13 16.75 11.07 16.63C11.02 16.51 11 16.38 11 16.25C11 15.99 11.11 15.73 11.29 15.54C11.66 15.17 12.34 15.17 12.71 15.54C12.89 15.73 13 15.99 13 16.25C13 16.38 12.97 16.51 12.92 16.63C12.87 16.75 12.8 16.86 12.71 16.96C12.52 17.15 12.27 17.25 12 17.25Z" fill="#FF9F43"/>
<path d="M12 24C11.1829 24 10.3536 23.8103 9.62194 23.4196L2.37806 19.5917C0.914647 18.8105 0 17.3708 0 15.8196V8.18601C0 6.63474 0.914647 5.19507 2.37806 4.41385L9.62194 0.585911C11.0854 -0.195304 12.9025 -0.195304 14.3781 0.585911L21.6219 4.41385C23.0854 5.19507 24 6.63474 24 8.18601V15.8196C24 17.3708 23.0854 18.8105 21.6219 19.5917L14.3781 23.4196C13.6464 23.8103 12.8171 24 12 24ZM12 1.67959C11.5 1.67959 10.9878 1.80236 10.5366 2.03672L3.29269 5.86467C2.39025 6.34456 1.82926 7.22623 1.82926 8.18601V15.8196C1.82926 16.7682 2.39025 17.661 3.29269 18.1409L10.5366 21.9688C11.439 22.4487 12.561 22.4487 13.4512 21.9688L20.6951 18.1409C21.5975 17.661 22.1585 16.7793 22.1585 15.8196V8.18601C22.1585 7.23739 21.5975 6.34456 20.6951 5.86467L13.4512 2.03672C13.0122 1.80236 12.5 1.67959 12 1.67959Z" fill="#FF9F43"/>
</svg>
